<svg version="1" xmlns="http://www.w3.org/2000/svg" width="1536" height="1536" viewBox="0 0 1152.000000 1152.000000"><path d="M833 121c-61.3 2.5-117.8 10.7-183.1 26.6l-26.7 6.5-10.3-3.4c-14.2-4.7-23.1-6.2-38.4-6.1-19.9 0-35.9 4.1-54.1 13.8-14.9 7.9-30.3 21.2-38.9 33.4-3.4 4.8-2.3 4.4-36.1 13.6-60.2 16.5-102.5 25.7-144.9 31.5-34.9 4.9-54.2 6.3-92.9 7l-34.8.6L126 325c-25.7 44.3-46.4 80.8-46.1 81.1.7.7 33.7 3.5 59.1 4.9 36.9 2.1 101.2 1.2 137-2.1 39.8-3.5 95.5-12 124.4-19 4.4-1 8.1-1.7 8.3-1.6.1.2-1.6 2.8-3.9 5.8-13.3 17.7-25.7 38.2-38 63.3-4.9 10-12 22.6-15.8 28.1-3.9 5.5-7.1 10.3-7.2 10.6-.2.4-7.7 1.2-16.8 1.8-111.5 7.8-206.9 37.6-302.6 94.8-5.2 3.1-9.6 5.9-9.8 6.2-.6.9 2.2 17.6 4.5 26.6 2.6 10.4 7.3 23.3 11.6 31.9 3.4 6.8 28.9 51.3 30.2 52.9.4.4 4.7-1 9.7-3.2 42.4-18.3 88.8-29.7 138.4-34 16.5-1.5 62.6-1.7 64.7-.3.8.5.2 4.1-2.3 13.2-7.9 29.2-17.4 74.9-21.5 103.7l-1.1 8.2h-19.7c-27.9 0-45 1.9-67.5 7.8-9.5 2.5-29.4 9.6-34.9 12.4l-2.7 1.4 42 72.5c23.1 39.9 42.1 72.9 42.3 73.4.1.5 4.3-.3 9.2-1.8 53-15.5 123.2-14.8 189.3 1.9 26.2 6.6 27.9 7.3 37.8 16 13.1 11.4 11.9 10.9 22 9.5 30.4-4.3 60.5 11.9 63.1 34.1.3 2.7.9 4.9 1.2 4.9.3 0 6.9 1.3 14.7 2.9l14 2.8 11.5 7.5c10.6 6.9 57 38.6 62.9 43 2.6 1.9 4.3 1.9 75.1 1.5 77.6-.4 75.4-.3 96.9-5.8 23.8-6 56.2-22.4 76.9-38.7l4.7-3.8-19-5.3c-30.4-8.6-66.2-20.9-101.6-35.1-13.3-5.3-48.1-19.9-48.7-20.4-.1-.1 3.9-4.4 9-9.6 22.9-23.5 41.3-49.2 58.2-81.5 3.8-7.2 6.9-13.1 7-13.3.1-.1 4.4.4 9.6 1.2 50.5 8.1 111.1 9.6 175.1 4.5l15.7-1.2 51.6-89.4c28.4-49.2 51.5-89.6 51.2-89.9-.2-.2-8.9-.7-19.3-1-54-1.5-99.9-8.1-152.4-21.9-19.4-5.1-42.8-12-43.6-12.7-.3-.3-3.4-9.7-6.9-20.9-20.1-64-44.3-120.5-65.5-153.4-3.3-5-7.4-12.6-9.3-17C771.9 410.6 733.5 361.1 690 332c-3.6-2.4-6.6-4.4-6.8-4.5-.1-.1.4-1.8 1.2-3.7l1.5-3.5 12-1.2c32.4-3.3 87.4-3.1 121.1.4 64.5 6.7 143.4 23.9 219.8 48.2 6.2 1.9 11.5 3.3 11.8 3.1.2-.3-10.1-18.7-22.9-40.9-12.9-22.2-41.7-72.1-64.2-110.9-22.4-38.8-43-73.8-45.8-77.8-2.8-4.1-7.8-10.2-11.1-13.7l-6.1-6.4-24-.5c-13.2-.2-32.8-.1-43.5.4zm-299 71.7c1.4 1 3.3 2.7 4.2 3.8 4.3 5 8.3 21.9 7.6 32.5l-.3 5.5-1.4-6c-4.1-18.2-13.4-25.7-21-17-3.8 4.3-5.6 8.6-7.5 17.3l-1.4 6.7-.1-9.1c-.2-15.7 5.1-30.6 11.9-34.1 3.4-1.7 5.1-1.6 8 .4zm89.2 3.3c5.5 6.1 7.9 14.2 8.4 28l.4 11.5-1.4-6.2c-3.1-13.5-8.8-21.3-15.5-21.3-2.4 0-4.9.8-6.5 2.1-3.5 2.8-7.5 10.8-9.1 18.3-1.2 6-1.3 6-1.9 2.6-1-4.8.9-18.6 3.3-25 5.7-14.9 14.3-18.8 22.3-10zm-42.4 86.9c18.9 9.8 26.3 47.7 14.2 73.8-5.5 11.9-15.2 19.3-23.6 18-9.4-1.5-18.2-11.2-22.5-24.6-3-9.2-3.7-28.2-1.5-38.3 5.2-23.2 19.9-35.9 33.4-28.9zM608 443c26.7 4.3 54.6 17 79 35.8 12.2 9.4 31.1 28.8 41.2 42.3 31.4 41.8 51 91.9 59.5 151.9 1.4 10 1.7 19.4 1.7 46.5 0 37.1-.7 45.2-6.5 73.7-11.9 59-38.6 111.4-75.4 148.4-37.6 37.8-79.5 56.5-126.5 56.5-25.8 0-46.9-4.8-70.5-16.1-60.5-29-108.1-94.3-128-175.4-6.6-27-9.3-47.9-10.2-77.6-1.7-57.9 9.9-113.1 34.2-162.5 20.5-41.8 49.4-75.8 83-97.7 36.6-23.9 76.6-32.6 118.5-25.8zM332.9 772.3c2 10.6 8.8 37.2 10.8 42.3.5 1.4.3 1.6-1.3 1-1-.5-8.5-2.5-16.6-4.5-8.1-2-15-3.9-15.2-4.2-.3-.3 2.3-7 5.8-15 3.5-7.9 7.8-18.3 9.7-23.1 1.9-4.9 3.6-8.8 3.9-8.8.3 0 1.6 5.5 2.9 12.3zm360.7 220.6c14.3 3.7 26.5 12.5 31.4 22.7 3.4 6.9 3.5 18 .1 24.7-7.3 14.8-28.9 25.7-51.1 25.7-21.8 0-43.2-10.7-50.4-25.2-3.9-7.7-3.7-17.3.5-25.6 6.1-12.2 20.7-21.2 39.4-24.3 7.2-1.1 21.9-.2 30.1 2z"/></svg>